<?xml version="1.0" encoding="UTF-8"?>
<svg id="Layer_1" data-name="Layer 1" xmlns="http://www.w3.org/2000/svg" viewBox="0 0 1200 220">
  <defs>
    <style>
      .cls-1 {
        font-family: Kallisto-Medium, Kallisto;
        font-size: 144.04px;
        font-weight: 500;
      }

      .cls-1, .cls-2 {
        fill: #fff;
      }

      .cls-3 {
        letter-spacing: 0em;
      }

      .cls-4 {
        letter-spacing: -.2em;
      }

      .cls-5 {
        letter-spacing: -.02em;
      }
    </style>
  </defs>
  <text class="cls-1" transform="translate(408.15 155.25)"><tspan class="cls-5" x="0" y="0">W</tspan><tspan class="cls-3" x="147.35" y="0">ar</tspan><tspan class="cls-4" x="300.32" y="0"> </tspan><tspan x="307.53" y="0">Room</tspan></text>
  <path class="cls-2" d="M251.72,35.12c-.33,1.09-63.04,138.27-63.04,138.27h-57.18L195.53,35.12h56.18Z"/>
  <polygon class="cls-2" points="177.01 35.12 113.98 173.38 84.48 114.55 120.93 35.12 177.01 35.12"/>
  <polygon class="cls-2" points="73.7 96.59 73.43 97.26 73.41 97.22 73.7 96.59"/>
  <path class="cls-2" d="M372.97,84.7c0,5.28-.79,10.99-2.46,16.68-4.1,13.89-14.2,24.84-27.13,30.71l14.96,40.96-56.75.34-12.61-34.56h-8.7l-16.14,34.56h-57l33.46-73.08h67.76c12.17,0,15.92-6.12,15.92-14.03s-5.5-11.66-14.93-11.66h-57s17.5-38.41,17.83-39.5h49.18c38.5,0,53.62,27.85,53.62,49.58Z"/>
  <polygon class="cls-2" points="102.48 35.12 74.46 96.59 74.17 97.22 43.02 35.12 102.48 35.12"/>
</svg>